<?xml version="1.0" encoding="UTF-8"?>
<!DOCTYPE svg PUBLIC "-//W3C//DTD SVG 1.1//EN"
    "http://www.w3.org/Graphics/SVG/1.1/DTD/svg11.dtd">
<svg xmlns="http://www.w3.org/2000/svg" xmlns:xlink="http://www.w3.org/1999/xlink" version="1.1" width="100" height="60" font-size="1" viewBox="0 0 100 60">
  <g stroke="rgb(0,0,0)" stroke-opacity="1.0" fill="rgb(0,0,0)" fill-opacity="0.0" stroke-width="1.0e-2" stroke-linecap="butt" stroke-linejoin="miter" font-size="1.0em" stroke-miterlimit="10.0">
    <g fill="#393b79" fill-opacity="1.0" stroke-width="0.0"><rect x="0" y="0" width="5" height="60"/></g>
    <g fill="#5254a3" fill-opacity="1.0" stroke-width="0.0"><rect x="5" y="0" width="5" height="60"/></g>
    <g fill="#6b6ecf" fill-opacity="1.0" stroke-width="0.0"><rect x="10" y="0" width="5" height="60"/></g>
    <g fill="#9c9ede" fill-opacity="1.0" stroke-width="0.0"><rect x="15" y="0" width="5" height="60"/></g>
    <g fill="#637939" fill-opacity="1.0" stroke-width="0.0"><rect x="20" y="0" width="5" height="60"/></g>
    <g fill="#8ca252" fill-opacity="1.0" stroke-width="0.0"><rect x="25" y="0" width="5" height="60"/></g>
    <g fill="#b5cf6b" fill-opacity="1.0" stroke-width="0.0"><rect x="30" y="0" width="5" height="60"/></g>
    <g fill="#cedb9c" fill-opacity="1.0" stroke-width="0.0"><rect x="35" y="0" width="5" height="60"/></g>
    <g fill="#8c6d31" fill-opacity="1.0" stroke-width="0.0"><rect x="40" y="0" width="5" height="60"/></g>
    <g fill="#bd9e39" fill-opacity="1.0" stroke-width="0.0"><rect x="45" y="0" width="5" height="60"/></g>
    <g fill="#e7ba52" fill-opacity="1.0" stroke-width="0.0"><rect x="50" y="0" width="5" height="60"/></g>
    <g fill="#e7cb94" fill-opacity="1.0" stroke-width="0.0"><rect x="55" y="0" width="5" height="60"/></g>
    <g fill="#843c39" fill-opacity="1.0" stroke-width="0.0"><rect x="60" y="0" width="5" height="60"/></g>
    <g fill="#ad494a" fill-opacity="1.0" stroke-width="0.0"><rect x="65" y="0" width="5" height="60"/></g>
    <g fill="#d6616b" fill-opacity="1.0" stroke-width="0.0"><rect x="70" y="0" width="5" height="60"/></g>
    <g fill="#e7969c" fill-opacity="1.0" stroke-width="0.0"><rect x="75" y="0" width="5" height="60"/></g>
    <g fill="#7b4173" fill-opacity="1.0" stroke-width="0.0"><rect x="80" y="0" width="5" height="60"/></g>
    <g fill="#a55194" fill-opacity="1.0" stroke-width="0.0"><rect x="85" y="0" width="5" height="60"/></g>
    <g fill="#ce6dbd" fill-opacity="1.0" stroke-width="0.0"><rect x="90" y="0" width="5" height="60"/></g>
    <g fill="#de9ed6" fill-opacity="1.0" stroke-width="0.0"><rect x="95" y="0" width="5" height="60"/></g>
  </g>
</svg>
