<?xml version="1.0" encoding="UTF-8"?>
<!DOCTYPE svg PUBLIC "-//W3C//DTD SVG 1.1//EN" "http://www.w3.org/Graphics/SVG/1.1/DTD/svg11.dtd">
<svg xmlns="http://www.w3.org/2000/svg" xmlns:xlink="http://www.w3.org/1999/xlink" version="1.1" width="100" height="60" font-size="1" viewBox="0 0 100 60">
  <g stroke="rgb(0,0,0)" stroke-opacity="1.0" fill="rgb(0,0,0)" fill-opacity="0.0" stroke-width="1.0e-2" stroke-linecap="butt" stroke-linejoin="miter" font-size="1.0em" stroke-miterlimit="10.0">
    <g fill="#3182bd" fill-opacity="1.0" stroke-width="0.0"><rect x="0" y="0" width="5" height="60"/></g>
    <g fill="#6baed6" fill-opacity="1.0" stroke-width="0.0"><rect x="5" y="0" width="5" height="60"/></g>
    <g fill="#9ecae1" fill-opacity="1.0" stroke-width="0.0"><rect x="10" y="0" width="5" height="60"/></g>
    <g fill="#c6dbef" fill-opacity="1.0" stroke-width="0.0"><rect x="15" y="0" width="5" height="60"/></g>
    <g fill="#e6550d" fill-opacity="1.0" stroke-width="0.0"><rect x="20" y="0" width="5" height="60"/></g>
    <g fill="#fd8d3c" fill-opacity="1.0" stroke-width="0.0"><rect x="25" y="0" width="5" height="60"/></g>
    <g fill="#fdae6b" fill-opacity="1.0" stroke-width="0.0"><rect x="30" y="0" width="5" height="60"/></g>
    <g fill="#fdd0a2" fill-opacity="1.0" stroke-width="0.0"><rect x="35" y="0" width="5" height="60"/></g>
    <g fill="#31a354" fill-opacity="1.0" stroke-width="0.0"><rect x="40" y="0" width="5" height="60"/></g>
    <g fill="#74c476" fill-opacity="1.0" stroke-width="0.0"><rect x="45" y="0" width="5" height="60"/></g>
    <g fill="#a1d99b" fill-opacity="1.0" stroke-width="0.0"><rect x="50" y="0" width="5" height="60"/></g>
    <g fill="#c7e9c0" fill-opacity="1.0" stroke-width="0.0"><rect x="55" y="0" width="5" height="60"/></g>
    <g fill="#756bb1" fill-opacity="1.0" stroke-width="0.0"><rect x="60" y="0" width="5" height="60"/></g>
    <g fill="#9e9ac8" fill-opacity="1.0" stroke-width="0.0"><rect x="65" y="0" width="5" height="60"/></g>
    <g fill="#bcbddc" fill-opacity="1.0" stroke-width="0.0"><rect x="70" y="0" width="5" height="60"/></g>
    <g fill="#dadaeb" fill-opacity="1.0" stroke-width="0.0"><rect x="75" y="0" width="5" height="60"/></g>
    <g fill="#636363" fill-opacity="1.0" stroke-width="0.0"><rect x="80" y="0" width="5" height="60"/></g>
    <g fill="#969696" fill-opacity="1.0" stroke-width="0.0"><rect x="85" y="0" width="5" height="60"/></g>
    <g fill="#bdbdbd" fill-opacity="1.0" stroke-width="0.0"><rect x="90" y="0" width="5" height="60"/></g>
    <g fill="#d9d9d9" fill-opacity="1.0" stroke-width="0.0"><rect x="95" y="0" width="5" height="60"/></g>
  </g>
</svg>
